{
  "accessors": [
    {
      "bufferView": 2,
      "componentType": 5126,
      "count": 928,
      "max": [
        0.39469000697135925,
        0.741998016834259,
        1.0735299587249756
      ],
      "min": [
        -0.39469000697135925,
        -1.7545360326766968,
        0.35516801476478577
      ],
      "type": "VEC3"
    },
    {
      "bufferView": 2,
      "byteOffset": 11136,
      "componentType": 5126,
      "count": 928,
      "max": [
        0.9941288828849792,
        0.8047866225242615,
        1.0
      ],
      "min": [
        -0.9941288828849792,
        -1.0,
        -0.9971684813499451
      ],
      "type": "VEC3"
    },
    {
      "bufferView": 1,
      "componentType": 5126,
      "count": 928,
      "max": [
        1.0,
        1.0
      ],
      "min": [
        0.0,
        0.0
      ],
      "type": "VEC2"
    },
    {
      "bufferView": 0,
      "componentType": 5125,
      "count": 1860,
      "type": "SCALAR"
    },
    {
      "bufferView": 2,
      "byteOffset": 22272,
      "componentType": 5126,
      "count": 720,
      "max": [
        0.5645130276679993,
        3.0225749015808105,
        0.1687999963760376
      ],
      "min": [
        -0.5708339810371399,
        1.8896809816360474,
        0.03876800090074539
      ],
      "type": "VEC3"
    },
    {
      "bufferView": 2,
      "byteOffset": 30912,
      "componentType": 5126,
      "count": 720,
      "max": [
        1.0,
        1.0,
        1.0
      ],
      "min": [
        -1.0,
        -1.0,
        -1.0
      ],
      "type": "VEC3"
    },
    {
      "bufferView": 1,
      "byteOffset": 7424,
      "componentType": 5126,
      "count": 720,
      "max": [
        0.875,
        1.0
      ],
      "min": [
        0.125,
        0.0
      ],
      "type": "VEC2"
    },
    {
      "bufferView": 0,
      "byteOffset": 7440,
      "componentType": 5125,
      "count": 1296,
      "type": "SCALAR"
    },
    {
      "bufferView": 2,
      "byteOffset": 39552,
      "componentType": 5126,
      "count": 9256,
      "max": [
        1.574476957321167,
        3.745168924331665,
        0.8895829916000366
      ],
      "min": [
        -1.8837809562683105,
        -7.366227149963379,
        -2.2266290187835693
      ],
      "type": "VEC3"
    },
    {
      "bufferView": 2,
      "byteOffset": 150624,
      "componentType": 5126,
      "count": 9256,
      "max": [
        1.0,
        1.0,
        1.0
      ],
      "min": [
        -1.0,
        -1.0,
        -1.0
      ],
      "type": "VEC3"
    },
    {
      "bufferView": 1,
      "byteOffset": 13184,
      "componentType": 5126,
      "count": 9256,
      "max": [
        1.0,
        1.0
      ],
      "min": [
        0.0,
        0.0
      ],
      "type": "VEC2"
    },
    {
      "bufferView": 0,
      "byteOffset": 12624,
      "componentType": 5125,
      "count": 14052,
      "type": "SCALAR"
    },
    {
      "bufferView": 2,
      "byteOffset": 261696,
      "componentType": 5126,
      "count": 4616,
      "max": [
        3.2249090671539307,
        2.3779470920562744,
        1.874464988708496
      ],
      "min": [
        -3.2585079669952393,
        -6.199814796447754,
        -2.2266290187835693
      ],
      "type": "VEC3"
    },
    {
      "bufferView": 2,
      "byteOffset": 317088,
      "componentType": 5126,
      "count": 4616,
      "max": [
        1.0,
        1.0,
        1.0
      ],
      "min": [
        -1.0,
        -1.0,
        -1.0
      ],
      "type": "VEC3"
    },
    {
      "bufferView": 1,
      "byteOffset": 87232,
      "componentType": 5126,
      "count": 4616,
      "max": [
        1.0,
        1.0
      ],
      "min": [
        0.0,
        0.0
      ],
      "type": "VEC2"
    },
    {
      "bufferView": 0,
      "byteOffset": 68832,
      "componentType": 5125,
      "count": 7848,
      "type": "SCALAR"
    },
    {
      "bufferView": 2,
      "byteOffset": 372480,
      "componentType": 5126,
      "count": 4144,
      "max": [
        5.645463943481445,
        4.132824897766113,
        0.6193130016326904
      ],
      "min": [
        -3.980325937271118,
        -7.162899017333984,
        -1.8555430173873901
      ],
      "type": "VEC3"
    },
    {
      "bufferView": 2,
      "byteOffset": 422208,
      "componentType": 5126,
      "count": 4144,
      "max": [
        1.0,
        1.0,
        1.0
      ],
      "min": [
        -1.0,
        -1.0,
        -1.0
      ],
      "type": "VEC3"
    },
    {
      "bufferView": 1,
      "byteOffset": 124160,
      "componentType": 5126,
      "count": 4144,
      "max": [
        1.8901089429855347,
        1.7169640064239502
      ],
      "min": [
        -0.5919650197029114,
        -0.4669640064239502
      ],
      "type": "VEC2"
    },
    {
      "bufferView": 0,
      "byteOffset": 100224,
      "componentType": 5125,
      "count": 7836,
      "type": "SCALAR"
    },
    {
      "bufferView": 2,
      "byteOffset": 471936,
      "componentType": 5126,
      "count": 7258,
      "max": [
        7.42954683303833,
        3.5280239582061768,
        1.9906680583953857
      ],
      "min": [
        -7.43341588973999,
        -7.510716915130615,
        -0.9212390184402466
      ],
      "type": "VEC3"
    },
    {
      "bufferView": 2,
      "byteOffset": 559032,
      "componentType": 5126,
      "count": 7258,
      "max": [
        1.0,
        1.0,
        1.0
      ],
      "min": [
        -1.0,
        -1.0,
        -1.0
      ],
      "type": "VEC3"
    },
    {
      "bufferView": 1,
      "byteOffset": 157312,
      "componentType": 5126,
      "count": 7258,
      "max": [
        1.0,
        1.0
      ],
      "min": [
        0.0,
        0.0
      ],
      "type": "VEC2"
    },
    {
      "bufferView": 0,
      "byteOffset": 131568,
      "componentType": 5125,
      "count": 11772,
      "type": "SCALAR"
    },
    {
      "bufferView": 2,
      "byteOffset": 646128,
      "componentType": 5126,
      "count": 644,
      "max": [
        1.938297986984253,
        2.2788050174713135,
        -0.30376899242401123
      ],
      "min": [
        -1.953253984451294,
        -0.20375700294971466,
        -1.2451670169830322
      ],
      "type": "VEC3"
    },
    {
      "bufferView": 2,
      "byteOffset": 653856,
      "componentType": 5126,
      "count": 644,
      "max": [
        1.0,
        1.0,
        0.9951865673065186
      ],
      "min": [
        -1.0,
        -1.0,
        -0.9951865673065186
      ],
      "type": "VEC3"
    },
    {
      "bufferView": 1,
      "byteOffset": 215376,
      "componentType": 5126,
      "count": 644,
      "max": [
        1.0,
        1.0
      ],
      "min": [
        0.0,
        0.0
      ],
      "type": "VEC2"
    },
    {
      "bufferView": 0,
      "byteOffset": 178656,
      "componentType": 5125,
      "count": 1248,
      "type": "SCALAR"
    }
  ],
  "asset": {
    "extras": {
      "author": "United4192 (https://sketchfab.com/United4192)",
      "license": "CC-BY-4.0 (http://creativecommons.org/licenses/by/4.0/)",
      "source": "https://sketchfab.com/3d-models/il-2m3-a8fdfd4e26cd48aea2ba62a17b5c6247",
      "title": "IL-2M3"
    },
    "generator": "Sketchfab-12.66.0",
    "version": "2.0"
  },
  "bufferViews": [
    {
      "buffer": 0,
      "byteLength": 183648,
      "name": "floatBufferViews",
      "target": 34963
    },
    {
      "buffer": 0,
      "byteLength": 220528,
      "byteOffset": 183648,
      "byteStride": 8,
      "name": "floatBufferViews",
      "target": 34962
    },
    {
      "buffer": 0,
      "byteLength": 661584,
      "byteOffset": 404176,
      "byteStride": 12,
      "name": "floatBufferViews",
      "target": 34962
    }
  ],
  "buffers": [
    {
      "byteLength": 1065760,
      "uri": "scene.bin"
    }
  ],
  "materials": [
    {
      "doubleSided": true,
      "name": "IL-2M3Black",
      "pbrMetallicRoughness": {
        "baseColorFactor": [
          0.035219,
          0.035219,
          0.035219,
          1.0
        ],
        "metallicFactor": 0.0,
        "roughnessFactor": 0.8063508326896291
      }
    },
    {
      "doubleSided": true,
      "name": "IL-2M3Blue",
      "pbrMetallicRoughness": {
        "baseColorFactor": [
          0.697089,
          1.0,
          0.97124,
          1.0
        ],
        "metallicFactor": 0.0,
        "roughnessFactor": 0.8063508326896291
      }
    },
    {
      "doubleSided": true,
      "name": "IL-2M3Brown",
      "pbrMetallicRoughness": {
        "baseColorFactor": [
          0.220255,
          0.073494,
          0.023945,
          1.0
        ],
        "metallicFactor": 0.0,
        "roughnessFactor": 0.8063508326896291
      }
    },
    {
      "doubleSided": true,
      "name": "IL-2M3Gray",
      "pbrMetallicRoughness": {
        "baseColorFactor": [
          0.201903,
          0.201903,
          0.201903,
          1.0
        ],
        "metallicFactor": 0.0,
        "roughnessFactor": 0.7880318375580224
      }
    },
    {
      "doubleSided": true,
      "name": "IL-2M3Green",
      "pbrMetallicRoughness": {
        "baseColorFactor": [
          0.162385,
          0.220251,
          0.07719,
          1.0
        ],
        "metallicFactor": 0.0,
        "roughnessFactor": 0.8063508326896291
      }
    },
    {
      "doubleSided": true,
      "name": "IL-2M3LightGray",
      "pbrMetallicRoughness": {
        "baseColorFactor": [
          0.507072,
          0.507072,
          0.507072,
          1.0
        ],
        "metallicFactor": 0.0,
        "roughnessFactor": 0.8063508326896291
      }
    }
  ],
  "meshes": [
    {
      "name": "Object_0",
      "primitives": [
        {
          "attributes": {
            "NORMAL": 1,
            "POSITION": 0,
            "TEXCOORD_0": 2
          },
          "indices": 3,
          "material": 1,
          "mode": 4
        }
      ]
    },
    {
      "name": "Object_1",
      "primitives": [
        {
          "attributes": {
            "NORMAL": 5,
            "POSITION": 4,
            "TEXCOORD_0": 6
          },
          "indices": 7,
          "material": 2,
          "mode": 4
        }
      ]
    },
    {
      "name": "Object_2",
      "primitives": [
        {
          "attributes": {
            "NORMAL": 9,
            "POSITION": 8,
            "TEXCOORD_0": 10
          },
          "indices": 11,
          "material": 0,
          "mode": 4
        }
      ]
    },
    {
      "name": "Object_3",
      "primitives": [
        {
          "attributes": {
            "NORMAL": 13,
            "POSITION": 12,
            "TEXCOORD_0": 14
          },
          "indices": 15,
          "material": 0,
          "mode": 4
        }
      ]
    },
    {
      "name": "Object_4",
      "primitives": [
        {
          "attributes": {
            "NORMAL": 17,
            "POSITION": 16,
            "TEXCOORD_0": 18
          },
          "indices": 19,
          "material": 3,
          "mode": 4
        }
      ]
    },
    {
      "name": "Object_5",
      "primitives": [
        {
          "attributes": {
            "NORMAL": 21,
            "POSITION": 20,
            "TEXCOORD_0": 22
          },
          "indices": 23,
          "material": 4,
          "mode": 4
        }
      ]
    },
    {
      "name": "Object_6",
      "primitives": [
        {
          "attributes": {
            "NORMAL": 25,
            "POSITION": 24,
            "TEXCOORD_0": 26
          },
          "indices": 27,
          "material": 5,
          "mode": 4
        }
      ]
    }
  ],
  "nodes": [
    {
      "children": [
        1
      ],
      "matrix": [
        1.0,
        0.0,
        0.0,
        0.0,
        0.0,
        2.220446049250313e-16,
        -1.0,
        0.0,
        0.0,
        1.0,
        2.220446049250313e-16,
        0.0,
        0.0,
        0.0,
        0.0,
        1.0
      ],
      "name": "Sketchfab_model"
    },
    {
      "children": [
        2,
        3,
        4,
        5,
        6,
        7,
        8
      ],
      "name": "IL-2M3.obj.cleaner.materialmerger.gles"
    },
    {
      "mesh": 0,
      "name": "Object_2"
    },
    {
      "mesh": 1,
      "name": "Object_3"
    },
    {
      "mesh": 2,
      "name": "Object_4"
    },
    {
      "mesh": 3,
      "name": "Object_5"
    },
    {
      "mesh": 4,
      "name": "Object_6"
    },
    {
      "mesh": 5,
      "name": "Object_7"
    },
    {
      "mesh": 6,
      "name": "Object_8"
    }
  ],
  "scene": 0,
  "scenes": [
    {
      "name": "Sketchfab_Scene",
      "nodes": [
        0
      ]
    }
  ]
}
